<svg width="48" height="48" viewBox="0 0 48 48" fill="none" xmlns="http://www.w3.org/2000/svg">
<path d="M43.2901 14.4228L30.6748 16.0285C26.9868 16.4873 24.2208 19.5698 24.2208 23.2258V24.2581L41.007 22.2509L24.2208 36.4734V4.75953C24.2208 3.98532 24.0598 3.21112 23.6793 2.52293C22.6548 0.659099 20.6206 -0.244143 18.6302 0.0569379C17.2253 0.286333 15.996 1.08921 15.2642 2.2792L0 27.1542L14.9862 25.362C16.0252 25.233 16.9619 26.0216 16.9911 27.0395L17.2107 33.7636L17.5619 44.6312C17.6058 46.0219 18.4839 47.2979 19.8157 47.7854C21.1621 48.2728 22.5963 47.9144 23.5476 46.8678L46.9342 21.1756C49.4953 18.3655 47.1098 13.9353 43.2901 14.4228Z" fill="#FF411C"/>
</svg>
