<svg width="146" height="34" viewBox="0 0 146 34" fill="none" xmlns="http://www.w3.org/2000/svg">
    <path
        d="M29.58 10.06L20.96 11.18C18.44 11.5 16.55 13.65 16.55 16.2V16.92L28.02 15.52L16.55 25.44V3.31996C16.55 2.77996 16.44 2.23996 16.18 1.75996C15.48 0.459958 14.09 -0.170042 12.73 0.0399576C11.77 0.199958 10.93 0.759958 10.43 1.58996L0 18.94L10.24 17.69C10.95 17.6 11.59 18.15 11.61 18.86L11.76 23.55L12 31.13C12.03 32.1 12.63 32.99 13.54 33.33C14.46 33.67 15.44 33.42 16.09 32.69L32.07 14.77C33.82 12.81 32.19 9.71996 29.58 10.06Z"
        fill="#FD441E" />
    <path
        d="M72.89 32.76C79.27 32.76 82.72 28.14 82.72 22.69V11.72H77.81V26.54C77.81 27.18 77.28 27.71 76.64 27.71H69.13C68.49 27.71 67.96 27.19 67.96 26.54V11.72H63.05V22.67C63.05 29.09 67.41 32.76 72.88 32.76"
        fill="#FD441E" />
    <path
        d="M50.48 11.73H38.85V32.32H43.76V16.34H52.92C53.57 16.34 54.09 16.86 54.09 17.51V32.33H59V20.25C59 15.55 55.19 11.74 50.49 11.74"
        fill="#FD441E" />
    <path
        d="M98.71 11.73H88.29V16.34H99.81C100.39 16.34 100.85 16.81 100.85 17.39V19.94H92.8C89.56 19.94 86.62 22.26 86.62 26.4C86.62 29.86 89.97 32.78 94.05 32.78C97.44 32.78 100.84 30.55 100.84 27.73H91.84C91.18 27.73 90.65 27.2 90.65 26.54V24.97C90.65 24.31 91.18 23.78 91.84 23.78H100.84V32.34H105.38V18.42C105.38 14.74 102.4 11.75 98.71 11.75"
        fill="#FD441E" />
    <path
        d="M128.2 15.21L127.85 14.84C125.94 12.85 123.38 11.75 120.65 11.73H110.52V22.08V32.32H115.43V16.34H124.59C125.23 16.34 125.76 16.86 125.76 17.51V21.72C125.76 21.72 125.76 21.78 125.76 21.8V32.32H130.67V17.53C130.67 16.87 131.2 16.34 131.86 16.34H139.83C140.48 16.34 141 16.86 141 17.51V32.32H145.91V20.24C145.91 16.32 143.1 11.73 136.7 11.73C131.31 11.73 129.1 14.2 128.23 15.21"
        fill="#FD441E" />
</svg>